<?xml version="1.0"?>
<svg xmlns="http://www.w3.org/2000/svg" xmlns:xlink="http://www.w3.org/1999/xlink" xmlns:svgjs="http://svgjs.com/svgjs" version="1.1" width="512" height="512" x="0" y="0" viewBox="0 0 480 480" style="enable-background:new 0 0 512 512" xml:space="preserve" class=""><g>
<g xmlns="http://www.w3.org/2000/svg">
	<g>
		<path d="M380,192V88c0-48.601-39.399-88-88-88s-88,39.399-88,88v160c0,39.764-32.235,72-72,72s-72-32.236-72-72v-64    c0-13.255-10.745-24-24-24H12v16h24c4.418,0,8,3.582,8,8v64c0,48.601,39.399,88,88,88s88-39.399,88-88V88    c0-39.765,32.236-72,72-72c39.765,0,72,32.235,72,72v104c-48.577,0.057-87.943,39.423-88,88v112c0.057,48.577,39.423,87.943,88,88    h16c48.577-0.057,87.943-39.423,88-88V280C467.943,231.423,428.577,192.057,380,192z M380,208    c33.569,0.056,62.655,23.277,70.144,56h0H396v-8c-0.042-10.134-6.445-19.15-16-22.528V208z M372,248c4.418,0,8,3.582,8,8v32    c0,4.418-3.582,8-8,8s-8-3.582-8-8v-32C364,251.582,367.582,248,372,248z M364,208v25.472c-9.555,3.378-15.958,12.394-16,22.528v8    h-54.144C301.345,231.277,330.431,208.056,364,208z M452,392c-0.044,39.746-32.254,71.956-72,72h-16    c-39.746-0.044-71.956-32.254-72-72V280h56v8c0,13.255,10.745,24,24,24s24-10.745,24-24v-8h56V392z" fill="#ffffff" data-original="#000000" style="" class=""/>
	</g>
</g>
<g xmlns="http://www.w3.org/2000/svg">
</g>
<g xmlns="http://www.w3.org/2000/svg">
</g>
<g xmlns="http://www.w3.org/2000/svg">
</g>
<g xmlns="http://www.w3.org/2000/svg">
</g>
<g xmlns="http://www.w3.org/2000/svg">
</g>
<g xmlns="http://www.w3.org/2000/svg">
</g>
<g xmlns="http://www.w3.org/2000/svg">
</g>
<g xmlns="http://www.w3.org/2000/svg">
</g>
<g xmlns="http://www.w3.org/2000/svg">
</g>
<g xmlns="http://www.w3.org/2000/svg">
</g>
<g xmlns="http://www.w3.org/2000/svg">
</g>
<g xmlns="http://www.w3.org/2000/svg">
</g>
<g xmlns="http://www.w3.org/2000/svg">
</g>
<g xmlns="http://www.w3.org/2000/svg">
</g>
<g xmlns="http://www.w3.org/2000/svg">
</g>
</g></svg>
