<?xml version="1.0"?>
<svg xmlns="http://www.w3.org/2000/svg" viewBox="0 0 64 64" width="512" height="512"><g id="Setting-2" data-name="Setting"><path d="M54,41h1a6,6,0,0,1,6,6v8a6,6,0,0,1-6,6H53a6,6,0,0,1-6-6V47a6,6,0,0,1,6-6Z" style="fill:#bddbff"/><path d="M37,17v6l-4.53.65a12.589,12.589,0,0,1-1.07,2.6l2.74,3.65L29.9,34.14,26.25,31.4a12.589,12.589,0,0,1-2.6,1.07L23,37H17l-.65-4.53a12.589,12.589,0,0,1-2.6-1.07L10.1,34.14,5.86,29.9,8.6,26.25a12.589,12.589,0,0,1-1.07-2.6L3,23V17l4.53-.65a12.589,12.589,0,0,1,1.07-2.6L5.86,10.1,10.1,5.86,13.75,8.6a12.589,12.589,0,0,1,2.6-1.07L17,3h6l.65,4.53a12.589,12.589,0,0,1,2.6,1.07L29.9,5.86l4.24,4.24L31.4,13.75a12.589,12.589,0,0,1,1.07,2.6ZM27,20a7,7,0,1,0-7,7A6.995,6.995,0,0,0,27,20Z" style="fill:#bddbff"/><rect x="19" y="6" width="2" height="2" style="fill:#3d9ae2"/><rect x="9.808" y="9.808" width="2" height="2" transform="translate(-4.477 10.808) rotate(-45)" style="fill:#3d9ae2"/><rect x="9.808" y="28.192" width="2" height="2" transform="translate(-17.477 16.192) rotate(-45)" style="fill:#3d9ae2"/><rect x="19" y="32" width="2" height="2" style="fill:#3d9ae2"/><rect x="28.192" y="28.192" width="2" height="2" transform="translate(-12.092 29.192) rotate(-45)" style="fill:#3d9ae2"/><rect x="28.192" y="9.808" width="2" height="2" transform="translate(0.908 23.808) rotate(-45)" style="fill:#3d9ae2"/><path d="M28,20a8,8,0,1,0-8,8A8.009,8.009,0,0,0,28,20ZM14,20a6,6,0,1,1,6,6A6.006,6.006,0,0,1,14,20Z" style="fill:#3d9ae2"/><rect x="6" y="19" width="2" height="2" style="fill:#3d9ae2"/><rect x="32" y="19" width="2" height="2" style="fill:#3d9ae2"/><path d="M55,40V15a7,7,0,0,0-14,0V47a9.01,9.01,0,0,1-9,9H30a9.01,9.01,0,0,1-9-9V38h2a1,1,0,0,0,.99-.858l.558-3.907a14,14,0,0,0,1.6-.657L29.3,34.942a1,1,0,0,0,1.307-.092l4.243-4.244a1,1,0,0,0,.093-1.306l-2.364-3.153a13.921,13.921,0,0,0,.657-1.6l3.906-.558A1,1,0,0,0,38,23V17a1,1,0,0,0-.859-.99l-3.906-.558a13.905,13.905,0,0,0-.657-1.6L34.942,10.7a1,1,0,0,0-.093-1.306L30.606,5.15A1,1,0,0,0,29.3,5.058L26.147,7.422a14,14,0,0,0-1.6-.657L23.99,2.858A1,1,0,0,0,23,2H17a1,1,0,0,0-.99.858l-.558,3.907a14,14,0,0,0-1.6.657L10.7,5.058a1,1,0,0,0-1.307.092L5.151,9.394A1,1,0,0,0,5.058,10.7l2.364,3.154a13.905,13.905,0,0,0-.657,1.6l-3.906.558A1,1,0,0,0,2,17v6a1,1,0,0,0,.859.99l3.906.558a13.921,13.921,0,0,0,.657,1.6L5.058,29.3a1,1,0,0,0,.093,1.306L9.394,34.85a1,1,0,0,0,1.307.092l3.152-2.364a14,14,0,0,0,1.6.657l.558,3.907A1,1,0,0,0,17,38h2v9A11.013,11.013,0,0,0,30,58h2A11.013,11.013,0,0,0,43,47V15a5,5,0,0,1,10,0V40a7.008,7.008,0,0,0-7,7v8a7.008,7.008,0,0,0,7,7h2a7.008,7.008,0,0,0,7-7V47A7.008,7.008,0,0,0,55,40ZM17.343,32.33a1,1,0,0,0-.71-.818,11.939,11.939,0,0,1-2.4-.987,1,1,0,0,0-1.081.077l-2.961,2.22L7.178,29.806,9.4,26.845a1,1,0,0,0,.077-1.081,11.9,11.9,0,0,1-.987-2.4,1,1,0,0,0-.819-.71L4,22.133V17.867l3.669-.523a1,1,0,0,0,.819-.71,12,12,0,0,1,.987-2.4A1,1,0,0,0,9.4,13.155l-2.22-2.961,3.016-3.016L13.155,9.4a1,1,0,0,0,1.081.077,11.939,11.939,0,0,1,2.4-.987,1,1,0,0,0,.71-.818L17.867,4h4.266l.524,3.67a1,1,0,0,0,.71.818,11.939,11.939,0,0,1,2.4.987A1,1,0,0,0,26.845,9.4l2.961-2.22,3.016,3.016L30.6,13.155a1,1,0,0,0-.077,1.081,12,12,0,0,1,.987,2.4,1,1,0,0,0,.819.71L36,17.867v4.266l-3.669.523a1,1,0,0,0-.819.71,11.9,11.9,0,0,1-.987,2.4,1,1,0,0,0,.077,1.081l2.22,2.961-3.016,3.016L26.845,30.6a1,1,0,0,0-1.081-.077,11.939,11.939,0,0,1-2.4.987,1,1,0,0,0-.71.818L22.133,36H17.867ZM60,55a5.006,5.006,0,0,1-5,5H53a5.006,5.006,0,0,1-5-5V47a5.006,5.006,0,0,1,5-5h2a5.006,5.006,0,0,1,5,5Z" style="fill:#3d9ae2"/><rect x="53" y="44" width="2" height="4" style="fill:#3d9ae2"/></g></svg>
